<svg xmlns="http://www.w3.org/2000/svg" width="188.357" height="179.746" viewBox="0 0 188.357 179.746">
  <g id="Group_2" data-name="Group 2" transform="translate(-73.057 -61.997)">
    <path id="Path_1" data-name="Path 1" d="M167.327,236.837c34.223-1.394,60.463-16.335,77.822-46.177a72.2,72.2,0,0,0,9.326-26.717A67.208,67.208,0,0,0,250,128.81c-8.02-19.562-22-33.574-40.644-43.154-3.07-1.577-6.289-2.814-9.474-4.133-6.738-2.791-8.8-10.238-4.345-15.775,2.941-3.653,6.854-4.376,11.239-3.268A44.334,44.334,0,0,1,222.123,70.1c20.019,14.7,32.664,34.263,37.372,58.623,5.094,26.354.06,50.879-15.348,72.923A90.713,90.713,0,0,1,189.5,238.912c-23.816,5.738-46.7,2.8-68.037-9.224-25.575-14.406-41.7-36.271-46.72-65.175-6.36-36.607,5.343-67.223,33.592-91.382a50.371,50.371,0,0,1,18.276-10.345,12.47,12.47,0,0,1,7.666-.31,9.986,9.986,0,0,1,6.931,8.9c.229,4.832-1.83,8.213-6.455,10.083a103.666,103.666,0,0,0-13.7,6.388C101.063,99.563,87.086,116.035,81.344,138.8c-3.886,15.407-2.173,30.421,4.474,44.777q18.681,40.341,61.956,50.991a72.654,72.654,0,0,0,9.309,1.575c3.381.379,6.78.576,10.245.693" fill="#fff"/>
    <path id="Path_2" data-name="Path 2" d="M109.888,232.162c-1.712-14.313,1.8-27.431,9.008-39.641,5.766-9.773,13.088-18.16,22.7-24.365a21.067,21.067,0,0,1,8.5-3.574,8.837,8.837,0,0,1,9.571,6.054c1.429,4.436-.117,8.8-4.09,10.786a112.1,112.1,0,0,0-13.976,7.832C127.643,198.931,118.04,212,111.671,227.6c-.618,1.512-1.19,3.043-1.783,4.566" transform="translate(-25.468 -71.712)" fill="#fff"/>
    <path id="Path_3" data-name="Path 3" d="M545.409,231.926c-2.016-4.731-4-9.411-6.423-13.9-8.733-16.2-21.318-28.309-38.105-35.984-6.374-2.914-7.962-10.19-3.27-14.979a8.454,8.454,0,0,1,8.68-2.327,30.122,30.122,0,0,1,11.11,6.055c13.562,10.9,22.741,24.667,26.877,41.654a58.6,58.6,0,0,1,1.324,18.324c-.029.388-.127.771-.193,1.155" transform="translate(-295.12 -71.632)" fill="#fff"/>
    <path id="Path_4" data-name="Path 4" d="M158.484,275.213c.007,3.663-2,5.919-5.148,7.385a91.223,91.223,0,0,0-23.277,15.423,86.5,86.5,0,0,0-9.234,9.823q-1.409,1.765-2.872,3.489c-.135.16-.213.687-.611.269a.672.672,0,0,1-.2-.772,94.984,94.984,0,0,1,4.092-10.966c4.734-10.251,10.712-19.648,19-27.439a24.5,24.5,0,0,1,6.721-4.709,8.051,8.051,0,0,1,11.535,7.5" transform="translate(-30.808 -143.38)" fill="#fff"/>
    <path id="Path_5" data-name="Path 5" d="M558.124,310.492a95.509,95.509,0,0,0-14-14.788,93.2,93.2,0,0,0-19.893-12.762,22.379,22.379,0,0,1-2.13-1.093,7.9,7.9,0,0,1-2.786-10.749,8.026,8.026,0,0,1,10.19-3.537c3.821,1.617,6.825,4.349,9.594,7.318a90.75,90.75,0,0,1,19.5,32.729,4.325,4.325,0,0,1,.121.733c-.112.741.25,1.612-.593,2.151" transform="translate(-311.476 -143.369)" fill="#fff"/>
    <path id="Path_6" data-name="Path 6" d="M650.922,406.942c.844-.539.482-1.41.593-2.151a18.742,18.742,0,0,1,1.255,4.326,5.467,5.467,0,0,1-1.848-2.175" transform="translate(-404.274 -239.818)" fill="#fff"/>
  </g>
</svg>
